<?xml version="1.0" encoding="UTF-8"?>
<!DOCTYPE svg PUBLIC "-//W3C//DTD SVG 1.1//EN" "http://www.w3.org/Graphics/SVG/1.1/DTD/svg11.dtd">
<!-- Creator: CorelDRAW -->
<svg xmlns="http://www.w3.org/2000/svg" xml:space="preserve" width="43.6782mm" height="28.7089mm" version="1.1" style="shape-rendering:geometricPrecision; text-rendering:geometricPrecision; image-rendering:optimizeQuality; fill-rule:evenodd; clip-rule:evenodd"
viewBox="0 0 152.32 100.12"
 xmlns:xlink="http://www.w3.org/1999/xlink"
 xmlns:xodm="http://www.corel.com/coreldraw/odm/2003">
 <defs>
  <style type="text/css">
   <![CDATA[
    .fil0 {fill:#F97316}
   ]]>
  </style>
 </defs>
 <g id="Camada_x0020_1">
  <metadata id="CorelCorpID_0Corel-Layer"/>
  <path class="fil0" d="M151.65 70.08c-1.72,-1.21 -4.71,4.74 -13.75,0.81 -4.32,-1.88 -7.4,-4.49 -10.93,-6.77 -9.68,-6.26 -16.04,-6.37 -27.51,-2.04 -8.17,3.09 -19.93,7.1 -29.51,4.73 -4.36,-1.08 -9.17,-4.02 -11.4,-6.31 -2.17,-2.23 -6.12,-8.61 -2.93,-13.01 6.14,-0.78 3.58,2.46 10.62,3.83 10.32,2.02 18.89,-6.96 19.58,-17.04 0.3,-4.4 0.33,-1.62 1.71,-5.98 5.45,-17.27 -11.83,-31.57 -28.5,-27.63 -2.29,0.54 -3.53,1.31 -5.39,2.03 -2.85,1.09 -6.91,-3.65 -18.75,-0.17 -10.77,3.17 -18.74,12.62 -22.31,22.28 -2.35,6.36 0.39,5.16 -3.53,7.39 -13.85,7.87 -14.05,42.17 15.51,59.35 13.29,7.72 30.97,11.81 47.53,5.46 15.22,-5.84 23.47,-19.21 40.68,-18.81 12.1,0.28 21.9,11.83 34.45,1.23 1.4,-1.18 7.02,-7.2 4.44,-9.34zm-62.29 -1.98c-8.27,1.31 -16.2,4.22 -26.06,-1.15 -4.98,-2.71 -9.74,-6.84 -10.95,-12.37 -0.68,-3.11 0.27,-4.65 0.07,-6.8 -6.18,-0.01 -7.9,-2.3 -10.82,-5.21 -5.11,26.88 20.41,41.92 44.29,27.79 1.11,-0.65 2.46,-1.72 3.47,-2.26zm-75.69 -37.57c4.26,-0.32 7.62,-0.06 10.82,2 5.77,3.73 5.66,11.58 -0.84,16.33 -3.28,2.4 -6.02,2.37 -9.94,1.09 1.03,17.45 11.35,34.19 28.78,38.69 11.42,2.95 15.94,0.96 20.42,1.75 0.52,1.19 0.53,0.97 0.07,2.16 -12.14,2.28 -30.58,-2.21 -39.21,-12.06 -8.38,-9.56 -11.96,-19.71 -12.7,-32.6 -0.13,-2.21 -1.03,-3.24 -0.23,-5.66l1.93 -0.13c0.4,1.34 -0.52,4.89 3.47,6.06 6.32,1.85 15.14,-9.26 6.02,-14 -4.91,-2.55 -11.34,-1.13 -14.31,1.93 -2.86,2.95 -4.91,8.35 -5.36,13.86 -0.92,11.31 4.49,22.34 9.93,28.21 6.69,7.23 12.54,11.75 22.48,15.61 9.68,3.77 21.95,5.12 32.68,2.04 9.87,-2.83 16.75,-9.19 24.33,-13.76 24.29,-14.63 32.56,0.13 44.98,-0.76 5.43,-0.39 9.73,-4.35 11.68,-7.3 -5.52,1.01 -7.85,1.05 -12.83,-1.33 -10.72,-5.14 -17.58,-16.27 -34.79,-8.43 -7.54,3.44 -12.58,8.6 -20.61,11.57 -16.77,6.22 -35.76,0.62 -40.96,-18.4 -1.25,-4.56 -1.6,-9.56 -0.58,-14.25 0.77,-3.56 1.28,-2.44 0.78,-6.36 -1.26,-9.86 8.43,-21.23 20.53,-19.06 4.14,0.74 7.12,4.06 7.59,8.36 0.76,6.89 -5.64,8.42 -8.4,6.98 -0.87,-3.61 3.79,-0.66 5.5,-3.8 1.34,-2.45 -0.42,-5.97 -1.59,-7.22 -3.3,-3.54 -10.95,-1.85 -14.41,0.66 -10.53,7.64 -7.97,21.54 1.88,22.48 2.69,0.25 6.45,-0.88 8.54,-0.25 2.49,0.75 6.57,6.23 13.98,3.38 10.62,-4.09 12.77,-18.63 6.78,-24.73 -2.34,-2.38 -4.22,-2.02 -6.24,-3.44l-0.06 -1.46c2.17,-1.3 5.58,1.05 7.15,2.27 2.62,2.04 2.49,3.29 4.3,6.3 1.12,-5.15 1.33,-8.6 -0.96,-13.19 -3.61,-7.22 -12.32,-11.86 -20.52,-11.54 -7.94,0.31 -8.51,3.83 -13.07,2.61 -5.03,-1.36 -8,-2.12 -14,-0.54 -10.88,2.86 -21.29,14.08 -23.01,25.92z"/>
 </g>
</svg>
