<?xml version="1.0" encoding="UTF-8"?>
<!DOCTYPE svg PUBLIC "-//W3C//DTD SVG 1.1//EN" "http://www.w3.org/Graphics/SVG/1.1/DTD/svg11.dtd">
<!-- Creator: CorelDRAW -->
<svg xmlns="http://www.w3.org/2000/svg" xml:space="preserve" width="54.4005mm" height="29.7586mm" version="1.1" style="shape-rendering:geometricPrecision; text-rendering:geometricPrecision; image-rendering:optimizeQuality; fill-rule:evenodd; clip-rule:evenodd"
viewBox="0 0 235.62 128.89"
 xmlns:xlink="http://www.w3.org/1999/xlink"
 xmlns:xodm="http://www.corel.com/coreldraw/odm/2003">
 <defs>
  <style type="text/css">
   <![CDATA[
    .fil0 {fill:#F97316}
   ]]>
  </style>
 </defs>
 <g id="Camada_x0020_1">
  <metadata id="CorelCorpID_0Corel-Layer"/>
  <path class="fil0" d="M104.25 21.14c-1.03,-0.72 -0.99,-1.19 -1.85,-2.05 -2.05,-2.04 -5.53,-3.65 -8.52,-4.33 -13.4,-3.06 -26.55,7.33 -24.19,16.89 0.67,2.7 2.15,3.61 3.14,5.66 3.53,7.32 -14.58,3.61 -15.5,17.34 -0.37,5.6 2.5,9.56 5.55,11.3 8.64,4.93 18.45,-3.2 20.34,4.6 0.62,2.56 -0.37,5.03 -1.76,6.41 -3.21,3.2 -9.3,2.62 -14.16,1.43 -10.07,-2.47 -13.85,-8.66 -21.41,-12.7 -11.24,-6 -16.59,-0.64 -25.46,3.4 -18.23,8.31 -14.44,-11.5 -20.29,-8.25 -1.03,10.08 4.01,20.38 13.99,23.8 4.93,1.69 10.83,1.75 15.56,3.5 4.86,1.8 7.49,4.88 9.74,9.32 5.82,11.51 4.3,16.16 14.33,23.45 7.47,5.43 20.12,7.87 30.54,4.35 9.47,-3.2 17.13,-11 28.93,-5.52 8.47,3.94 16.68,11.17 28.82,8.61 5.15,-1.08 9.71,-3.66 12.62,-6.44 1.88,-1.79 8.22,-7.61 10.21,-8.85 11.09,-6.91 20.78,-0.49 32.17,-0.2 17.52,0.44 29.36,-6.73 35.6,-21.16 4.29,-9.92 3.94,-21.53 -0.91,-31.04 -2.92,-5.73 -8.14,-11.82 -13.18,-15.43 -5.55,-3.97 -10.5,-5.63 -12.61,-16.02 -2.19,-10.78 -8.2,-17.35 -16.61,-21.14 -5.23,-2.36 -9.93,-2.41 -16.01,-3.1 -5.85,-0.67 -9.69,-2.65 -15.03,-4 -13.02,-3.3 -20.44,2.42 -28.41,7.78 -7.68,5.16 -16.25,4.61 -23.2,10.17 -1.05,0.84 -1.17,1.4 -2.41,2.22zm-83.63 51.44c3.42,0.1 7.51,-0.82 11.39,-0.82 23.84,-0.02 19.73,20.29 32.5,29.96 2.11,1.6 6.17,3.69 9.54,1.93 5.24,-2.73 4.54,-20.43 20.88,-11.1 2.27,1.3 5.92,3.66 9.24,3.1 3.19,-0.53 5.67,-3.15 6.74,-5.76 4.69,-11.49 -15.15,-22.01 -25.6,-22.65 6.21,15.66 -13.77,19.92 -29,9.67 -4.65,-3.13 -9.77,-8.41 -15.89,-10.16 -4.08,-1.17 -7.8,-0.23 -11.18,1.27 -1.83,0.81 -7.25,3.56 -8.62,4.56zm134.25 18.13c-0.25,-4.51 4.23,-1.13 7.23,-0.42 16.29,3.9 31.76,-9.94 25.15,-28.45 -2.13,-5.96 -6.08,-10.32 -9.55,-13.29 0.23,2.01 1.2,3.71 1.34,6.44 0.36,6.91 -3.01,12.99 -10.14,14.76 -5.07,1.26 -10.02,-0.15 -15.15,0.03 -5.8,0.2 -8.56,2.12 -12.11,4.64 -3.68,2.6 -6.81,4.29 -12.8,3.64 -4.94,-0.54 -8.93,-2.9 -10.98,-5.85 -6.99,-10.05 5.17,-20.27 -0.63,-26.14 -5.49,-5.56 -16.94,-5.2 -15.93,-17.47 0.28,-3.39 1.84,-3.43 0.05,-5.87 -1.18,-1.61 -2.54,-2.64 -4.74,-3.73 -8.07,-3.99 -19.42,-0.39 -23.11,6.72 -3.26,6.28 2.35,7.91 2.91,12.45 1.22,9.94 -16.1,5.38 -15.97,17.58 0.14,13.05 16.36,7.57 23.84,8.2 9.42,0.79 18.31,5.2 23.65,9.76 6.41,5.48 10.45,15.52 2.26,22.45 -10.06,8.51 -18.1,-5.48 -25.08,-2.72 -5.4,2.14 -4.97,18.57 -18.42,13.06 -8.05,-3.3 -10.99,-9.91 -15.14,-18.22 -4.21,-8.44 -7.72,-13.41 -19.91,-13.36 -5.04,0.02 -10.77,1.49 -15.42,1.11 -5.95,-0.48 -8.42,-2.88 -11.72,-5.2 0.72,3.52 4.32,7.27 6.56,8.8 10.14,6.9 22.56,-0.08 31.02,16.3 4.34,8.42 4.57,14.63 11,20.51 4.95,4.52 14.52,8.32 23.9,7.31 9.19,-0.99 14.61,-6.44 23.05,-8.4 10.77,-2.5 16.55,2.93 23.8,6.6 7.82,3.96 16.26,5.83 24.59,0.7 7.53,-4.64 10.27,-10.66 17.76,-13.76 17.59,-7.28 32.38,8.6 52.6,-4.62 13.45,-8.8 19.74,-31.4 5.76,-48.91 -4.1,-5.13 -7.59,-7.23 -12.92,-10.92 -8.92,-6.18 -8.11,-15.34 -10.62,-20.94 -2.85,-6.35 -9.39,-12.2 -17.41,-14.1 -4.5,-1.07 -9.32,-0.94 -13.96,-1.82 -4.22,-0.81 -8,-2.51 -12.19,-3.57 -11.03,-2.78 -16.07,0.91 -23.29,5.72 -12.23,8.15 -11.88,4.61 -22.05,9.49 -9.27,4.45 -10.41,14.22 -2.78,18.6 6.9,3.96 15.87,5.52 11.6,18.11 -1.5,4.44 -3.35,7.94 -1.28,13 1.38,3.37 5.05,5.57 9.71,6.06 10.26,1.09 10.82,-7.28 22.9,-8.23 7.5,-0.59 20.43,3.94 23.28,-7.54 3.68,-14.81 -14.32,-22.78 -25.96,-17.55 -12.89,5.79 -0.73,17.25 5.47,10.6 1.51,-1.62 0.04,-5.52 2.83,-4.38 4.3,1.76 -2.59,12.79 -11.35,8.82 -7.76,-3.52 -8.22,-13.92 2.2,-18.1 17.9,-7.17 43.7,10.91 43.12,32.53 -0.64,23.67 -28.31,26.44 -37,19.56z"/>
 </g>
</svg>
