<?xml version="1.0" encoding="UTF-8"?>
<!DOCTYPE svg PUBLIC "-//W3C//DTD SVG 1.1//EN" "http://www.w3.org/Graphics/SVG/1.1/DTD/svg11.dtd">
<!-- Creator: CorelDRAW -->
<svg xmlns="http://www.w3.org/2000/svg" xml:space="preserve" width="84.8156mm" height="37.7215mm" version="1.1" style="shape-rendering:geometricPrecision; text-rendering:geometricPrecision; image-rendering:optimizeQuality; fill-rule:evenodd; clip-rule:evenodd"
viewBox="0 0 492.26 218.93"
 xmlns:xlink="http://www.w3.org/1999/xlink"
 xmlns:xodm="http://www.corel.com/coreldraw/odm/2003">
 <defs>
  <style type="text/css">
   <![CDATA[
    .fil0 {fill:#F97316}
   ]]>
  </style>
 </defs>
 <g id="Camada_x0020_1">
  <metadata id="CorelCorpID_0Corel-Layer"/>
  <path class="fil0" d="M179.25 35.41c-17.21,0.23 -42.49,12.59 -38.15,35.87 -19.59,-2.56 -31.66,9.26 -29.66,26.41 0.79,6.75 2.6,9.74 4.23,14.96 -5.68,-1.53 -7.76,-3.59 -15.15,-3.68 -16.65,-0.22 -28.11,11.02 -26.19,30.68 -3.76,-1.29 -5.38,-4.14 -15.82,-6.71 -18.67,-4.6 -38.65,1.68 -49.73,15.17 -8,9.74 -11.91,22.63 -5.81,34.48 2.55,4.96 8.49,10.32 12.55,10.08 1.39,-0.08 2.63,-1.03 2.03,-2.56 -0.78,-1.99 -5.64,-3.24 -7.45,-10.21 -1.85,-7.1 1.54,-13.03 6.3,-15.33 14.93,-7.19 36.19,9.38 46.24,19.76 5.53,5.71 19.58,15.48 27.03,18.67 5.34,2.29 11.13,4.25 17.69,5.02 9.49,1.11 12,-0.77 19.9,-2.75 0.55,2.48 6.73,5.81 9.07,7.09 13.22,7.26 27.98,7.36 43.15,5.65 13.12,-1.48 27.03,-5.55 37.95,-12.11l9.97 -6.75c0.64,2.35 1.54,2.61 4.15,3.48 16.18,5.41 38.47,-13.21 40.45,-13.97 19.56,14.89 44.18,10.87 60.91,-5.85 1.87,-1.87 3.88,-4.77 5.78,-6.37 2.23,25.75 32.63,39.87 57.49,23.46 16.75,-11.06 16.96,-31.23 29.44,-33.91 11.84,-2.54 31.79,13.52 48.16,-8.9 2.62,-3.58 7.41,-10.34 11.46,-12.12 2,-0.88 5.03,-0.71 6.74,-1.6 2.02,-6.51 -8.44,-7.9 -18.43,-2.24 -4.64,2.63 -13.7,8.2 -20.19,8.09 -16.04,-0.29 -11.23,-26.94 -35.34,-15.47 -5.72,2.72 -15.6,7.92 -19.45,0.14 -1.43,-2.89 -2.31,-7.48 -3.46,-10.79 -6.39,-18.35 -28.99,-21.7 -48.92,-14.49 -1.87,-3.19 -2.96,-8.6 -7.34,-12.79 -3.89,-3.72 -6.43,-5.91 -13.58,-7.05 2.9,-7.22 6.38,-11.85 6.54,-21.51 0.14,-8.33 -2.85,-16.72 -7.01,-21.27 -10.77,-11.79 -26.63,-16.5 -43.02,-13.35 -2.77,-7.25 -13.61,-17.15 -20.55,-21.85 -20,-13.54 -46.36,-14.34 -66.35,-2.37 -8.77,5.25 -15.63,12.63 -15.66,26.99zm4.2 -0.49c1.26,0.76 3.49,0.74 5.01,0.94 5.2,0.67 10.44,2.13 15.12,4.1 6.09,2.56 12.02,6.04 16.07,9.49 8.86,7.54 18.46,20.51 16.75,33.89 -0.56,4.36 -2.86,7.29 0.22,10.08 7.06,6.38 11.25,15.89 12.08,26.13 0.92,11.34 -2.72,20.85 -8.82,29.2 -2.16,2.96 -4.12,5.7 -7.42,4.85 -1.48,-5.77 7.1,-5.08 11.17,-21.75 2.46,-10.09 0.31,-20.1 -3.97,-27.72 -2.5,-4.45 -5.17,-6.15 -7.51,-9.21 -4.75,-6.21 8.15,-17.73 -10.25,-37.38 -5.11,-5.45 -10.88,-9.9 -19.81,-13.62 -8.24,-3.43 -18.32,-5.4 -28.16,-3.88 -12.06,1.86 -25.94,9.61 -28.89,21.21 -1.76,6.9 2.45,11.91 0.92,15.2 -2.46,1.69 -2.88,-0.34 -5.87,-1.03 -16.62,-3.86 -29.76,10.14 -22.45,30.83 2.9,8.2 8.52,14.2 16.53,16.89 6.16,2.07 8.18,1.67 13.62,-0.63 6.97,-2.95 6.54,2.59 10.34,5.16 7.62,5.16 19.44,1.96 26.47,-1.77 3.95,-2.1 6.64,-4.27 8.15,-8.59 1.87,-5.35 1.56,-8.45 -0.75,-13.69 -2.71,-6.16 -10.25,-13.96 -19.26,-14.01 -5.35,-0.03 -8.83,2.38 -10.59,5.97 -0.95,1.93 -1.26,5.04 0.07,6.88 1.24,1.72 5.03,2.41 2.05,4.67 -5.44,4.09 -11.09,-10.76 -2.6,-17.92 12.76,-10.77 32.97,2.35 36.12,18.97 1.3,6.86 -3,19.06 -5.5,24.92 -13.5,31.58 -43.43,37.83 -73.85,29.4 -3.03,-0.84 -11.22,-2.02 -9.15,-5.75 1.43,-1.87 7.91,1.07 11.03,1.91 12.8,3.46 27.47,4.71 39.9,0.34 13.49,-4.74 25.21,-16.78 29.53,-31.11 -7.82,3.48 -17.7,10.25 -31.47,4.57 -1.82,-0.75 -2.89,-1.34 -4.21,-2.66 -1.54,-1.54 -1.59,-2.33 -2.93,-3.86 -5.39,0.72 -4.73,3.75 -13.72,2.31 -8.49,-1.36 -10.47,-5.07 -16.59,-7.42 -1.48,-0.57 -3.29,-2.19 -5.15,-3.24 -17.48,-9.83 -38.79,-2.26 -37.41,19.09 0.39,6.01 3.64,10.4 3.17,12.96 -3.98,1.7 -4.5,-2.33 -8.81,-5.72 -3.17,-2.49 -6.83,-4.28 -11.02,-5.69 -9.52,-3.21 -19.38,-3.63 -29,-0.69 -15.5,4.73 -28.84,17.52 -28.25,33.94l0.39 2.55c0.31,0.85 0.34,0.84 0.65,1.28 2.05,-18.32 19.97,-19.39 35.51,-12.44 7.02,3.14 11.61,7.33 16.71,11.3 5.37,4.18 9.37,8.5 14.95,13.07 21.06,17.2 47.18,26.6 67.01,2.24 2.34,-2.88 3.38,-7.25 7.35,-6.31 1.44,4.6 -7.59,13.37 -10.74,16.16l-4.57 3.36c-0.55,0.46 -0.46,0.39 -0.84,0.8 0.1,0.09 0.25,0.09 0.3,0.27 0.21,0.76 2.35,1.82 2.88,2.19 1.12,0.77 2.03,1.32 3.29,2.12 16.62,10.55 46.87,6.98 63.63,0.92 16.28,-5.89 26.72,-14.15 37.02,-27.84 1.46,-1.94 3.13,-4.12 4.69,-6.13 1.34,-1.72 3.95,-6.28 6.55,-4.16 1.94,2.46 -1.71,5.03 -3.31,6.92 -1.85,2.18 -3.23,4.17 -5.15,6.65 -1.79,2.32 -3.27,4.37 -5.28,6.51 -1.03,1.1 -1.66,2.03 -2.72,3.18l-2.95 3.16c3.79,1.33 4.55,2.46 9.74,2.1 9.02,-0.63 19.09,-6.27 25.71,-11.09 8.84,-6.45 16.72,-15.1 22.19,-27.44 8.76,-19.75 5.1,-51.49 -16.94,-60.43 -3.81,-1.55 -6.96,-1.39 -10.38,-2.41l-0.16 -3.3c8.49,-2.55 20.32,5.69 25.2,11.18 5.6,6.29 9.55,16 10.55,26.82 1.09,11.71 -0.86,21.52 -5.11,31.31 -4.7,10.81 -9.03,13.65 -15.44,21.72 2.68,1.81 5.64,4.03 8.9,5.27 23.18,8.78 45.83,-5.29 56.4,-25.32 1.62,-3.07 4.32,-5.82 6.51,-8.2 9.36,-10.15 30.71,-15 39.76,-1.83 4.43,6.44 1.47,17.15 -2.62,21.78 -2.2,2.5 -5.2,5.09 -9.75,4.8 -2.12,-0.14 -3.92,-1.09 -5.36,-1.97 -1.99,-1.23 -2.57,-1.78 -2.11,-4.4 3.85,-1.81 2.97,0.94 6.6,1.94 8.41,2.33 13.9,-13.47 9.79,-19.69 -6.32,-9.57 -23.22,-7.2 -30.87,-0.1 -9.28,8.61 -13.2,18.17 -5.77,29.85 2.85,4.49 6.17,8.08 10.98,10.65 5.16,2.77 10.74,4.4 17.65,4.2 13.18,-0.39 22.66,-8.31 27.79,-15.18 6.31,-8.44 9.14,-20.34 18.63,-24.61 11.98,-5.38 22.68,5.81 37.21,0.84 10.19,-3.49 12.35,-12.24 19.11,-18.72 1.07,-1.02 1.62,-1.17 2.74,-2.42 -10.69,1.55 -28.17,23.62 -43,0.31 -8.54,-13.42 -13.1,-6.58 -25.27,-1.99 -7.7,2.9 -14.35,1.25 -17.46,-4.9 -3.34,-6.59 -2.49,-13.05 -7.75,-18.31 -7.52,-7.52 -19.23,-9.95 -29.72,-8.16 -3.72,0.63 -7.61,2.59 -10.46,2.82 1.27,11.93 -1.44,19.29 -9.25,23.66 -2.92,1.63 -13.36,4.77 -9.99,-0.54 0.5,-0.78 7.98,-2.4 11.21,-5.59 8.78,-8.68 3.02,-27.42 -6.51,-34.09 -4.76,-3.33 -9.65,-1.94 -12.24,-4.39 -0.34,-2.94 5.92,-13.59 6.98,-19.48 4.38,-24.32 -18.04,-38.26 -42.9,-35.51 0.95,2.91 2.86,6.18 4.01,9.69 3.51,10.79 5,26.21 0.1,36.11l-2.86 0.03c-1.18,-2.75 0.74,-6.92 1.25,-10.45 1.59,-11.02 -1.18,-23.89 -6.19,-33.24 -6.28,-11.72 -15.31,-21.1 -26.7,-27.35 -29.42,-16.16 -72.27,-1.9 -70.48,23.7z"/>
 </g>
</svg>
