<?xml version="1.0" encoding="UTF-8"?>
<!DOCTYPE svg PUBLIC "-//W3C//DTD SVG 1.1//EN" "http://www.w3.org/Graphics/SVG/1.1/DTD/svg11.dtd">
<!-- Creator: CorelDRAW -->
<svg xmlns="http://www.w3.org/2000/svg" xml:space="preserve" width="44.3541mm" height="22.0859mm" version="1.1" style="shape-rendering:geometricPrecision; text-rendering:geometricPrecision; image-rendering:optimizeQuality; fill-rule:evenodd; clip-rule:evenodd"
viewBox="0 0 142.79 71.1"
 xmlns:xlink="http://www.w3.org/1999/xlink"
 xmlns:xodm="http://www.corel.com/coreldraw/odm/2003">
 <defs>
  <style type="text/css">
   <![CDATA[
    .fil0 {fill:#F97316}
   ]]>
  </style>
 </defs>
 <g id="Camada_x0020_1">
  <metadata id="CorelCorpID_0Corel-Layer"/>
  <path class="fil0" d="M19.58 15.84c-8.32,0.47 -14.84,3.86 -18.14,11.69 -1.66,3.92 -1.97,8.37 -0.47,12.55 0.62,1.74 1.68,3.49 2.62,4.73 1.19,1.57 3.15,3.01 3.81,3.77 -4.87,7.87 1.02,14.92 6.25,17.78 9.02,4.94 13.85,1.03 22.73,-0.36 5.34,-0.83 7.47,0.11 12.21,1.12 2.34,0.5 3.94,0.07 5.61,1.21 1.46,1 2.99,1.7 4.89,2.19 9.56,2.44 13.77,-3.52 20,-6.49 9.43,-4.5 13.13,4.77 22.68,0.86 4.9,-2.01 4.51,-5.97 7.28,-6.63 2.57,-0.61 3.74,3.26 8.92,4.62 8.29,2.17 15.09,-4.54 17.38,-9.65 2.6,-5.79 0.61,-13.34 3.89,-16.84 1.53,-1.64 4.02,-0.36 3.47,-3.22 -3.5,-1.43 -6.73,0.68 -8.16,2.89 -1.79,2.78 -2.08,5.61 -4.9,7.11 -4.57,2.42 -7.43,-4.76 -13.64,-1.11 -1.47,0.86 -2.42,2.03 -3.55,2.62 -1.19,-5.62 1.97,-20.3 -10.17,-20.87 -6.3,-0.3 -8.55,2.39 -11.69,-3.34 -2.54,-4.62 -4.18,-4.46 -10.45,-5.09 -1.79,-8.94 -12.65,-13.16 -20.78,-11.67 -4.34,0.79 -4.71,2.47 -7.6,3.49 -0.41,-1.4 -1.96,-3.18 -2.91,-3.86 -10.04,-7.22 -28.93,-2.64 -29.29,12.49zm-9.4 31.57c0.28,2.88 -4.91,5.6 -0.65,12.18 1.76,2.72 5.46,5.44 9.66,6.43 5.11,1.19 8.6,-0.49 13.19,-1.56 5.42,-1.26 8.89,-1.52 14.41,-0.15 15.7,3.91 12.27,-6.71 18.93,-11.22 3.59,-2.43 7.43,-3.04 8.7,-7.4 1.29,-4.42 -1.3,-9.44 -4.56,-10.72 -5.29,-2.07 -4.61,1.07 -10.99,-4.82 -2.21,-2.05 -6.69,-5.06 -11.32,-4.9 -5.74,0.21 -6.7,3.69 -10.68,5.25 -4.48,1.75 -9.97,-0.49 -12.07,4.01 -1.96,4.19 -0.06,9.64 3.48,10.97 2.06,0.77 4.98,0.03 7.26,0.15 4.4,0.23 7.5,5.04 12.32,3.21 1.84,-0.7 3.47,-2.52 3.02,-5.19 -0.34,-2.01 -1.96,-3.82 -4.14,-3.94 -3.51,-0.19 -4.3,3.33 -5.7,1.4 -1.01,-1.41 1.6,-2.68 2.73,-3.18 5.38,-2.39 10.99,3.05 9.23,8.68 -0.92,2.95 -4.05,5.22 -8.08,4.84 -1.93,-0.18 -3.45,-0.87 -4.93,-1.6 -1.58,-0.77 -2.67,-1.87 -4.95,-1.92 -5.16,-0.11 -7.42,1.07 -10.65,-2.38 -3.81,-4.06 -4.55,-15.16 4.66,-16.33 5.95,-0.76 6.13,0.31 10.25,-3.12 6.01,-5.01 13.33,-3.49 19.11,0.69 4.01,2.9 3.86,4.42 8.02,5.08 4.41,0.7 6.9,1.75 8.67,4.68 1.72,2.84 2.72,6.78 1.3,10.56 -1.33,3.54 -3.6,4.68 -6.9,6.47 -9.11,4.94 -3.22,8.18 -12.83,13.43 3.38,2.35 8.69,2.21 12.38,0.3 3.4,-1.76 6.31,-4.21 9.82,-5.72 4.87,-2.09 7.78,-1.34 12.36,0.53 4.07,1.66 8.87,2.03 11.87,-0.84 1.31,-1.25 1.97,-3.31 3.34,-4.3 6.34,-4.6 8.02,6.04 17.28,3.65 4.16,-1.08 6.79,-3.96 8.7,-6.84 2.33,-3.51 2.28,-8.66 2.65,-13.32 -1.32,1.71 -1.31,2.92 -3.86,4.49 -5.52,3.4 -8.74,-2.52 -12.68,-1.52 -1.63,0.41 -3.72,2.64 -5.08,3.36 0.49,1.89 2.38,3.67 4.71,3.69 3.32,0.03 4.16,-2.92 6.02,-1.68 1.46,2.88 -8.31,7.09 -12.39,0.1 -3.66,-6.28 -0.82,-12.05 -2.98,-18.01 -2.73,-7.54 -11.12,-3.47 -15.62,-4.82 -5.89,-1.77 -3.28,-9.32 -12.85,-8.26 0.22,6.3 -0.34,8.84 4.7,11.5 3.63,1.92 7.13,4.28 9.15,7.22 2.54,3.7 3.49,8.09 0.83,12.3 -0.9,1.42 -2.7,2.98 -4.35,3.83 -1.15,0.6 -4.98,2.65 -5.85,1.41 -1.56,-2.22 3.97,-1.87 7.43,-5.56 5.53,-5.9 -0.54,-12.63 -6.63,-16.22 -3.19,-1.88 -5.84,-2.84 -6.95,-6.68 -1.07,-3.71 0.07,-8.57 -1.35,-12.01 -2.21,-5.34 -11.22,-9.19 -18.4,-7.43 -1.97,0.48 -3.12,1.44 -4.49,2.33 -6.79,4.39 -1.59,-2.98 -11.83,-5.71 -3.69,-0.99 -8.03,-0.45 -11.36,0.79 -5.02,1.87 -9.05,5.54 -9.27,10.88 -0.11,2.62 -0.31,3.56 -3.09,3.74 -7.26,0.46 -13.1,4.08 -15.65,11.08 -1.25,3.44 -1.08,7.93 0.4,11.15 0.77,1.69 1.64,2.82 2.8,4 1.48,1.49 2.17,1.79 3.77,2.97z"/>
 </g>
</svg>
