<?xml version="1.0" encoding="UTF-8"?>
<!DOCTYPE svg PUBLIC "-//W3C//DTD SVG 1.1//EN" "http://www.w3.org/Graphics/SVG/1.1/DTD/svg11.dtd">
<!-- Creator: CorelDRAW -->
<svg xmlns="http://www.w3.org/2000/svg" xml:space="preserve" width="27.5636mm" height="30.1897mm" version="1.1" style="shape-rendering:geometricPrecision; text-rendering:geometricPrecision; image-rendering:optimizeQuality; fill-rule:evenodd; clip-rule:evenodd"
viewBox="0 0 39.81 43.61"
 xmlns:xlink="http://www.w3.org/1999/xlink"
 xmlns:xodm="http://www.corel.com/coreldraw/odm/2003">
 <defs>
  <style type="text/css">
   <![CDATA[
    .fil0 {fill:#F97316;fill-rule:nonzero}
   ]]>
  </style>
 </defs>
 <g id="Camada_x0020_1">
  <metadata id="CorelCorpID_0Corel-Layer"/>
  <path class="fil0" d="M32.66 41.31l-29.06 -30.11c-0.5,-0.51 -1.18,-0.8 -1.86,-0.8 -0.51,0 -0.96,0.17 -1.27,0.48 -0.36,0.36 -0.53,0.91 -0.47,1.51 0.06,0.6 0.34,1.17 0.78,1.62l29.76 29.26c0.22,0.22 0.5,0.34 0.81,0.34 0.61,0 1.27,-0.46 1.52,-1.06 0.19,-0.45 0.11,-0.9 -0.22,-1.23z"/>
  <path class="fil0" d="M20.4 26.69c0.53,0.62 1.9,1.98 1.9,1.98 0.15,0.14 0.23,0.09 0.28,0.07 0.54,-0.2 1.11,-0.38 1.7,-0.53 0.04,-0.01 0.11,-0.07 0.06,-0.18l-10.37 -26.62 -0.02 -0.04 -0.03 -0.04c-0.97,-2.25 -4.89,-1.7 -3.23,2.32l9.47 22.68c0,0 0.08,0.2 0.23,0.37z"/>
  <path class="fil0" d="M25.78 40.63c-1.25,0 -5,0 -5,0 -1.54,0 -2.86,-0.91 -3.43,-2.22 -0.01,-0.03 -0.03,-0.08 0.07,-0.11 1.04,-0.13 2.81,-0.53 4.96,-0.86 0.1,-0.01 0.24,-0.08 0.09,-0.24l-4.83 -4.75c-0.13,-0.11 -0.28,-0.05 -0.34,-0.01 -2.05,1.35 -2.55,3.11 -2.55,4.37 0,0.72 0.23,1.16 0.67,1.36 0.1,0.05 0.16,0.17 0.16,0.22 0.22,2.14 2.02,3.8 4.21,3.8 0,0 5.55,0 7.39,0 0.4,0 0.22,-0.14 0.22,-0.14l-1.29 -1.27c0,0 -0.12,-0.15 -0.34,-0.15z"/>
  <path class="fil0" d="M26.56 30.43c-0.78,0 -1.51,0.02 -2.19,0.07 -0.09,0.01 -0.23,0.06 -0.1,0.19l6.09 6.31c0.19,0.19 0.33,0.2 0.41,0.21 2.71,0.35 5.23,0.96 6.55,1.11 0.08,0.02 0.08,0.06 0.07,0.08 -0.56,1.31 -1.87,2.23 -3.41,2.23 0,0 -0.14,0 -0.03,0.16 0.26,0.37 0.37,0.82 0.37,1.28 -0,0.04 -0,0.13 0.12,0.13l0.34 0c2.22,0 4.04,-1.71 4.22,-3.88 0,-0.02 0.03,-0.08 0.07,-0.1 0.49,-0.19 0.75,-0.64 0.75,-1.4 0,-2.9 -4.46,-6.38 -13.26,-6.38z"/>
 </g>
</svg>
