<?xml version="1.0" encoding="UTF-8"?>
<!DOCTYPE svg PUBLIC "-//W3C//DTD SVG 1.1//EN" "http://www.w3.org/Graphics/SVG/1.1/DTD/svg11.dtd">
<!-- Creator: CorelDRAW -->
<svg xmlns="http://www.w3.org/2000/svg" xml:space="preserve" width="29.8052mm" height="29.4998mm" version="1.1" style="shape-rendering:geometricPrecision; text-rendering:geometricPrecision; image-rendering:optimizeQuality; fill-rule:evenodd; clip-rule:evenodd"
viewBox="0 0 48.45 47.95"
 xmlns:xlink="http://www.w3.org/1999/xlink"
 xmlns:xodm="http://www.corel.com/coreldraw/odm/2003">
 <defs>
  <style type="text/css">
   <![CDATA[
    .fil0 {fill:#F97316;fill-rule:nonzero}
   ]]>
  </style>
 </defs>
 <g id="Camada_x0020_1">
  <metadata id="CorelCorpID_0Corel-Layer"/>
  <path class="fil0" d="M48.05 6.91c-0.55,-0.38 -1.47,-0.03 -2.05,0.79l-14.25 20.03c0,0 -0.07,0.13 -0.21,0.13 -0.24,0 -0.7,0 -0.98,0 -0.25,0 -0.17,-0.21 -0.17,-0.21l8.8 -25.52c0.33,-0.94 0.07,-1.88 -0.57,-2.09 -0.64,-0.21 -1.42,0.38 -1.74,1.32l-9.07 26.29c0,0 -0.09,0.21 -0.33,0.21 -6.52,0 -26.08,0 -26.08,0 -1.14,0 -1.7,0.86 -1.25,1.9l6.97 16.29c0.45,1.05 1.74,1.9 2.88,1.9l24.01 0c1.14,0 2.43,-0.86 2.88,-1.9l6.97 -16.29c0.45,-1.05 -0.12,-1.9 -1.25,-1.9 0,0 -5.89,0 -7.85,0 -0.13,0 -0.04,-0.12 -0.04,-0.12l13.27 -18.66c0.58,-0.81 0.6,-1.78 0.05,-2.17z"/>
  <path class="fil0" d="M30.15 16.23l0.47 -1.37c0.07,-0.19 -0.08,-0.28 -0.15,-0.34 -1.29,-0.96 -2.89,-1.53 -4.59,-1.53 -2.88,0 -5.47,1.58 -6.8,4.08 -0.64,-0.17 -1.3,-0.25 -1.97,-0.25 -2.87,0 -5.49,1.6 -6.83,4.07 -1.03,-0.67 -2.22,-1.03 -3.47,-1.03 -3.43,0 -6.24,2.74 -6.36,6.14 -0,0.07 0,0.22 0.14,0.22l1.38 0c0.15,0 0.13,-0.12 0.13,-0.18 0.09,-2.52 2.17,-4.53 4.71,-4.53 1.2,0 2.34,0.45 3.22,1.27 0.16,0.15 0.44,0.41 0.85,0.24 0.29,-0.12 0.42,-0.38 0.49,-0.55 0.98,-2.35 3.19,-4 5.74,-4 0.73,0 1.45,0.11 2.12,0.38 0.15,0.06 0.41,0.18 0.65,0.04 0.26,-0.15 0.34,-0.35 0.4,-0.5 0.93,-2.28 3.13,-3.75 5.59,-3.75 1.47,0 2.85,0.54 3.91,1.45 0.1,0.09 0.31,0.25 0.35,0.13z"/>
  <path class="fil0" d="M35.17 18.46l-0.49 1.41c-0.04,0.11 0.06,0.12 0.11,0.11 0.19,-0.02 0.38,-0 0.58,-0.04 0.05,-0.01 0.07,-0.03 0.11,-0.07l1.04 -1.46c0.03,-0.04 -0.04,-0.06 -0.08,-0.07 -0.32,-0.04 -0.64,-0.06 -0.97,-0.06 -0.03,0 -0.05,0 -0.08,0 -0.05,0 -0.15,-0 -0.21,0.17z"/>
  <path class="fil0" d="M41.31 21.1l-0.83 1.16c-0.07,0.08 0.01,0.19 0.05,0.24 0.72,0.98 1.17,2.17 1.22,3.47 0,0.09 0.04,0.26 0.18,0.26l1.32 0c0.21,0 0.15,-0.16 0.15,-0.24 -0.05,-1.86 -0.75,-3.56 -1.87,-4.88 -0.04,-0.05 -0.15,-0.13 -0.22,-0z"/>
 </g>
</svg>
