<?xml version="1.0" encoding="UTF-8"?>
<!DOCTYPE svg PUBLIC "-//W3C//DTD SVG 1.1//EN" "http://www.w3.org/Graphics/SVG/1.1/DTD/svg11.dtd">
<!-- Creator: CorelDRAW -->
<svg xmlns="http://www.w3.org/2000/svg" xml:space="preserve" width="30.7768mm" height="13.8969mm" version="1.1" style="shape-rendering:geometricPrecision; text-rendering:geometricPrecision; image-rendering:optimizeQuality; fill-rule:evenodd; clip-rule:evenodd"
viewBox="0 0 52 23.48"
 xmlns:xlink="http://www.w3.org/1999/xlink"
 xmlns:xodm="http://www.corel.com/coreldraw/odm/2003">
 <defs>
  <style type="text/css">
   <![CDATA[
    .fil0 {fill:#F97316;fill-rule:nonzero}
   ]]>
  </style>
 </defs>
 <g id="Camada_x0020_1">
  <metadata id="CorelCorpID_0Corel-Layer"/>
  <path class="fil0" d="M42.39 16.96c-0.12,-0.06 -0.49,-0.06 -0.77,-0.03 -0.1,0.01 -0.22,0.06 -0.26,0.15 -0.96,2.27 -3.38,3.74 -5.9,3.74l-25.14 0c-1.53,0 -2.95,-0.63 -3.89,-1.39 -0.21,-0.19 -0.42,-0.18 -0.52,-0.18 -0.69,-0.02 -1.34,-0.08 -1.94,-0.16 -0.36,-0.05 -0.69,-0.12 -1.02,-0.2 -0.23,-0.05 -0.56,0.03 -0.43,0.29 1.28,2.42 3.64,4.31 6.57,4.31l27.57 0c3.02,0 5.64,-2.06 6.94,-5.06 0.02,-0.04 0.06,-0.13 -0.03,-0.22 -0.48,-0.53 -1.02,-1.16 -1.19,-1.24z"/>
  <path class="fil0" d="M17.67 7.77c0.34,-0.76 1.65,-3.64 2.92,-6.34 0.07,-0.15 0.1,-0.42 -0.37,-0.57 -1.4,-0.3 -2.24,-0.42 -3.67,-0.59l0 0c-1.4,-0.17 -2.8,-0.26 -4.19,-0.27 -0.19,-0 -0.37,-0 -0.56,0 -1.56,0.02 -3.08,0.15 -4.56,0.43l-0.01 0c-0.05,0.01 -0.1,0.02 -0.14,0.03 -4.45,0.88 -4.38,2.36 -4.79,3.58 -0.44,1.29 0.55,2.33 0.15,3.65 -0.28,0.94 -6.36,8.32 1.78,9.54 1.25,0.19 2.8,0.22 4.73,0.04 1.84,-0.17 4.02,-0.52 6.59,-1.11 0.28,-0.06 1.1,-0.26 1.25,-0.29 0.36,-0.08 0.27,-0.28 0.26,-0.39 -0.18,-2.1 -0.19,-5.91 0.62,-7.7z"/>
  <path class="fil0" d="M52 10.82c-0.05,-0.24 -1.2,-0.4 -2.24,-0.19 -1.83,0.35 -4.44,1.93 -4.99,1.79 -0.07,-0.02 -0.56,0.02 -1.86,-0.88 -0.78,-0.54 -1.67,-1.15 -2.8,-2l0 -0c-0.81,-0.61 -1.7,-1.25 -2.64,-1.87l0 0c-1.66,-1.11 -3.45,-2.18 -5.19,-2.97l-0 -0c-0.13,-0.06 -0.27,-0.12 -0.4,-0.18 -1.28,-0.55 -2.7,-1.1 -4.23,-1.63l-0 0 0 0c-0.07,-0.03 -0.15,-0.05 -0.22,-0.08 -0.14,-0.05 -0.41,-0.12 -0.59,0.23 -1.41,2.85 -3.8,7.7 -3.99,8.33 -0.21,0.67 -0.3,1.81 -0.34,3.04 -0,0.1 0,0.31 0.32,0.23 1.18,-0.2 1.99,-0.3 3.07,-0.43 2.03,-0.24 3.88,-0.36 5.55,-0.41 2,-0.05 3.74,0.02 5.24,0.15 1.78,0.16 3.21,0.41 4.31,0.66 1,0.23 1.85,0.26 2.18,0.63 0,0 4.57,6.11 5.9,6.87 0.17,0.1 0.34,0.07 0.36,0.06 0.69,-0.18 -2.69,-7.95 -2.5,-8.21 0.16,-0.24 5.23,-2.4 5.08,-3.16z"/>
 </g>
</svg>
